<?xml version="1.0" standalone="no"?>
<!DOCTYPE svg PUBLIC "-//W3C//DTD SVG 20010904//EN"
 "http://www.w3.org/TR/2001/REC-SVG-20010904/DTD/svg10.dtd">
<svg version="1.0" xmlns="http://www.w3.org/2000/svg"
 width="256.000000pt" height="256.000000pt" viewBox="0 0 256.000000 256.000000"
 preserveAspectRatio="xMidYMid meet">

<g transform="translate(0.000000,256.000000) scale(0.100000,-0.100000)"
fill="#000000" stroke="none">
   <style>
        path {
            fill: black;
        }
        @media (prefers-color-scheme: dark) {
            path { fill: white; }
        }
    </style>

<path d="M1055 2434 c-102 -11 -307 -51 -405 -81 l-58 -17 -21 -95 c-79 -363
-105 -641 -80 -873 21 -192 113 -496 147 -483 41 15 156 101 196 146 44 49 46
54 46 110 l0 59 -101 0 -101 0 -40 40 c-22 22 -46 40 -52 40 -22 0 -36 24 -36
61 0 36 20 69 42 69 6 0 26 15 44 34 18 18 47 36 64 40 18 3 112 6 209 6 155
0 184 3 236 21 83 30 200 30 275 0 52 -20 72 -21 358 -21 l302 0 0 103 c0 111
-18 277 -50 458 -24 137 -55 277 -62 284 -9 9 -225 62 -328 80 -92 17 -484 29
-585 19z m-291 -356 c18 -94 60 -264 67 -273 5 -5 9 34 9 92 l0 101 41 7 c29
5 44 3 49 -6 6 -9 12 -10 22 -2 17 15 50 19 65 10 7 -4 22 -3 33 3 11 6 44 10
73 8 l52 -3 3 -38 c3 -36 2 -38 -17 -28 -23 13 -71 15 -71 3 0 -7 79 -52 91
-52 4 0 9 14 13 31 3 17 19 44 35 60 26 25 37 29 85 29 43 0 61 -5 76 -20 11
-11 20 -24 20 -30 0 -5 5 -10 11 -10 7 0 8 11 4 31 l-7 32 43 -8 c24 -4 69 -7
100 -6 51 2 59 -1 78 -25 15 -19 21 -41 21 -77 l0 -50 24 22 c13 13 41 28 61
35 20 7 37 17 38 22 4 16 -41 16 -72 -1 l-31 -16 0 40 c0 32 4 40 23 45 64 17
146 -5 168 -45 7 -13 15 -57 19 -97 4 -40 13 -79 20 -85 13 -13 10 32 -15 223
-7 52 -11 97 -9 99 2 2 23 0 47 -3 l44 -7 12 -92 c7 -51 16 -119 22 -153 16
-103 29 -94 -143 -93 -115 0 -159 4 -175 15 -20 13 -23 13 -23 -1 0 -11 -12
-15 -50 -15 l-50 0 0 94 c0 55 -4 98 -10 101 -20 12 -39 -15 -35 -48 2 -18 6
-58 9 -89 l5 -58 -55 0 c-47 0 -54 2 -54 20 0 20 0 20 -32 0 -56 -34 -123 -25
-176 24 l-23 21 -17 -21 c-25 -32 -55 -44 -107 -44 -69 0 -85 12 -85 66 l0 45
33 -25 c35 -27 71 -34 82 -16 3 6 -8 18 -25 28 -55 30 -80 53 -80 73 0 26 -25
24 -44 -3 -11 -15 -16 -46 -16 -95 l0 -73 -110 0 c-102 0 -110 1 -110 19 0 40
-11 51 -51 51 -36 0 -39 -2 -45 -35 -6 -34 -7 -35 -55 -35 -27 0 -49 1 -49 3
0 1 21 56 46 122 24 66 47 141 51 167 l6 46 56 10 c31 5 61 10 67 11 6 0 14
-14 18 -31z"/>
<path d="M1295 1955 c-3 -8 -7 -22 -10 -30 -5 -18 8 -19 36 -5 15 9 17 15 9
30 -13 24 -29 26 -35 5z"/>
<path d="M672 1925 c-16 -34 -15 -35 8 -35 17 0 19 4 14 28 -9 36 -9 36 -22 7z"/>
<path d="M1356 1871 c-58 -20 -68 -36 -33 -52 19 -9 31 -8 53 4 26 13 30 13
41 -2 10 -14 12 -10 13 27 0 48 -2 48 -74 23z"/>
<path d="M1761 1852 c-7 -13 -6 -23 1 -30 21 -21 38 -13 38 18 0 34 -23 41
-39 12z"/>
<path d="M468 2291 c-36 -14 -69 -29 -72 -32 -7 -6 -18 -58 -45 -209 -39 -222
-45 -279 -45 -450 1 -196 22 -334 76 -495 35 -108 125 -295 141 -295 20 0 77
24 77 32 0 5 -8 25 -19 46 -34 67 -82 215 -108 332 -20 91 -26 153 -30 300 -6
213 7 339 63 619 19 95 34 174 32 176 -2 1 -33 -10 -70 -24z"/>
<path d="M2025 2293 c58 -232 105 -565 105 -744 l0 -89 65 0 65 0 0 133 c0
136 -24 346 -59 522 -29 148 -27 144 -110 176 l-73 28 7 -26z"/>
<path d="M2095 1243 c-12 -81 -73 -270 -121 -371 -108 -232 -316 -479 -544
-647 -128 -94 -131 -97 -55 -55 426 235 714 591 835 1030 11 41 20 78 20 82 0
5 -29 8 -64 8 l-64 0 -7 -47z"/>
<path d="M1946 1253 c-33 -3 -59 -12 -77 -28 -16 -13 -60 -31 -102 -41 l-74
-17 -6 -62 c-12 -131 -80 -245 -187 -314 -78 -51 -130 -64 -237 -59 -73 2 -99
8 -154 34 -36 17 -84 49 -108 72 l-42 40 -82 -38 c-45 -21 -106 -46 -134 -56
-29 -10 -53 -22 -53 -27 0 -14 70 -119 135 -202 34 -44 105 -121 157 -171 98
-95 277 -234 300 -234 17 0 178 120 268 201 233 209 412 506 484 804 10 39 20
78 22 88 6 18 4 18 -110 10z"/>
<path d="M1480 1121 l-64 -17 66 -37 c36 -20 69 -37 72 -37 6 0 26 69 26 93 0
21 -14 20 -100 -2z"/>
<path d="M1128 989 c-38 -22 -68 -44 -68 -49 0 -24 89 -79 153 -95 l27 -7 0
82 c0 67 -3 85 -17 96 -23 18 -18 19 -95 -27z"/>
<path d="M1348 1019 c-15 -8 -18 -24 -18 -94 0 -62 3 -85 13 -85 25 1 103 42
134 72 37 36 40 32 -57 86 -42 23 -59 28 -72 21z"/>
<path d="M583 763 c-13 -2 -23 -9 -23 -15 0 -19 94 -142 170 -222 64 -68 138
-135 230 -210 50 -40 304 -195 275 -168 -5 5 -55 44 -111 85 -186 140 -307
267 -432 455 -33 50 -61 81 -71 81 -9 -1 -26 -4 -38 -6z"/>
</g>
</svg>
